<svg width="20" height="20" viewBox="4 0 20 20" fill="none" xmlns="http://www.w3.org/2000/svg">
<g filter="url(#filter0_d_176_99)">
<path d="M16.3527 9.83864V13.2143C16.3527 14.0842 17.0542 14.7857 17.9241 14.7857C18.794 14.7857 19.4955 14.0842 19.4955 13.2143V6.07143C19.4955 5.20154 18.794 4.5 17.9241 4.5H11.1429C10.273 4.5 9.57143 5.20154 9.57143 6.07143C9.57143 6.94132 10.273 7.64286 11.1429 7.64286H14.136L8.95908 12.816L8.95895 12.8161C8.34509 13.4299 8.34236 14.4266 8.96084 15.0385C9.57163 15.6428 10.5664 15.6556 11.1808 15.0353C11.181 15.0351 11.1811 15.0349 11.1813 15.0347L16.3527 9.83864ZM21.1429 0.5C22.4426 0.5 23.5 1.55739 23.5 2.85714V17.1429C23.5 18.4426 22.4426 19.5 21.1429 19.5H6.85714C5.55739 19.5 4.5 18.4426 4.5 17.1429V2.85714C4.5 1.55739 5.55739 0.5 6.85714 0.5H21.1429Z" stroke="#3F3636" stroke-width="1.5" shape-rendering="geometricPrecision"/>
</g>
<defs>
<filter id="filter0_d_176_99" x="0" y="0" width="28" height="28" filterUnits="userSpaceOnUse" color-interpolation-filters="sRGB">
<feFlood flood-opacity="0" result="BackgroundImageFix"/>
<feColorMatrix in="SourceAlpha" type="matrix" values="0 0 0 0 0 0 0 0 0 0 0 0 0 0 0 0 0 0 127 0" result="hardAlpha"/>
<feOffset dy="4"/>
<feGaussianBlur stdDeviation="2"/>
<feComposite in2="hardAlpha" operator="out"/>
<feColorMatrix type="matrix" values="0 0 0 0 0 0 0 0 0 0 0 0 0 0 0 0 0 0 0.25 0"/>
<feBlend mode="normal" in2="BackgroundImageFix" result="effect1_dropShadow_176_99"/>
<feBlend mode="normal" in="SourceGraphic" in2="effect1_dropShadow_176_99" result="shape"/>
</filter>
</defs>
</svg>
