<svg width="307" height="380" viewBox="0 0 307 380" fill="none" xmlns="http://www.w3.org/2000/svg">
<g filter="url(#filter0_f_7_8)">
<path fill-rule="evenodd" clip-rule="evenodd" d="M167.073 -213.884C243.246 -209.982 263.69 -103.931 317.028 -49.8383C358.069 -8.21678 411.314 16.976 443.024 65.9706C483.827 129.016 553.241 200.896 524.02 269.982C494.209 340.462 392.012 339.481 318.146 361.209C268.446 375.829 218.681 370.141 167.073 374.979C107.828 380.533 49.9334 411.011 -6.27345 391.621C-72.2129 368.873 -150.358 329.389 -162.689 261.219C-175.214 191.974 -94.6882 143.6 -62.4707 80.93C-37.2059 31.7843 -28.5681 -22.1423 5.4257 -65.8023C51.3836 -124.828 91.9921 -217.731 167.073 -213.884Z" fill="#E7B782"/>
</g>
<defs>
<filter id="filter0_f_7_8" x="-364" y="-414" width="1095" height="1012" filterUnits="userSpaceOnUse" color-interpolation-filters="sRGB">
<feFlood flood-opacity="0" result="BackgroundImageFix"/>
<feBlend mode="normal" in="SourceGraphic" in2="BackgroundImageFix" result="shape"/>
<feGaussianBlur stdDeviation="100" result="effect1_foregroundBlur_7_8"/>
</filter>
</defs>
</svg>
